<?xml version="1.0" encoding="utf-8"?>
<!-- Generator: Adobe Illustrator 24.1.2, SVG Export Plug-In . SVG Version: 6.00 Build 0)  -->
<svg version="1.1" id="Layer_1" xmlns="http://www.w3.org/2000/svg" xmlns:xlink="http://www.w3.org/1999/xlink" x="0px" y="0px"
	 viewBox="0 0 560.9 560.9" style="enable-background:new 0 0 560.9 560.9;" xml:space="preserve">
<style type="text/css">
	.st0{opacity:0.1;}
	.st1{opacity:0.5;fill:#F2F2F2;enable-background:new    ;}
</style>
<g id="Layer_2_1_" class="st0">
	<g id="Layer_1-2">
		<path class="st1" d="M538.8,229.9l-7.2-7.3l3.3-9.8c11.8-35.1-3.2-73.6-35.6-91.4c-5.7-29.5-28.1-53-57.3-60
			C424.3,31.2,388.3,17,354.7,27L342,30.7l-8-8.1C304.4-7.3,256-7.6,226,22l-4.3,4.1l-5.5-1.9c-7.7-2.6-15.8-4-24-4
			c-27.6-0.2-53.1,14.5-66.7,38.4c-29.5,5.1-53.4,27-61,56c-30.8,17.5-45.6,54-35.6,88l3.3,11l-9.4,9.2C-7.3,252.6-7.6,300.9,22,331
			l7.3,7.3l-3.3,9.8c-11.8,35.1,3.2,73.6,35.6,91.5c5.7,29.5,28.1,52.9,57.3,59.9c13.7,23,38.3,37.3,65.1,37.5
			c7.5,0,15-1.1,22.2-3.1l12.7-3.8l8,8.1c29.7,30,78.1,30.3,108.1,0.7l4.1-4.1l5.6,1.9c34.6,11.8,72.7-2.6,90.7-34.4
			c29.6-5.1,53.5-27,61.1-56c30.9-17.5,45.6-54,35.6-88.1l-3.3-10.9l9.5-9.3C568.2,308.2,568.4,259.9,538.8,229.9z M28.2,324.9
			c-26.2-26.7-26-69.4,0.5-95.8l6.2-6.1l15.6,52.9l-18.1,53.3L28.2,324.9z M60.3,424.8v3.9c-25.1-17.2-35.8-48.9-26.1-77.8l2-5.7
			L60.6,370L60.3,424.8z M61,311.5l-0.3,46.4l-21.4-21.7l15.5-45.9L61,311.5L61,311.5z M61.2,281.6l-1.6-5.5l1.6-5V281.6z
			 M61.4,243.6l-6.1,18.2l-13.6-45.5l19.9-19.6h0.1L61.4,243.6z M62,133.4l-0.3,51L39,206.8l-1.9-6.5c-8-27.5,2.1-57.1,25.3-74
			C62.2,128.7,62,131,62,133.4z M489.3,116.7c-0.7-0.3-1.5-0.6-2.2-0.9l-29.4-9.9l-7.9-27.3c-0.7-2.3-1.5-4.6-2.4-6.8
			C467.6,79.3,483.2,96,489.3,116.7z M462.4,152.5l-53.2-53.8l41.4,14.1L462.4,152.5z M441.3,81.1l6.4,21.5L395.6,85l-17.2-17.4
			l46.1,0.3c3.9,0,7.8,0.4,11.7,1.1C438.4,72.8,440.1,76.9,441.3,81.1z M357.1,35.3c27-7.9,56.1,1.7,73.2,24.1
			c-1.9-0.1-3.7-0.2-5.7-0.2l-54.7-0.3L349,37.7L357.1,35.3z M377.4,78.8l-33.7-11.4l22.6,0.2L377.4,78.8z M339.6,40.5l18.1,18.3
			l-40-0.3h-0.1l-18.3-6.2L339.6,40.5z M232.1,28.2c26.6-26.3,69.5-26,95.8,0.5l4.8,4.9l-47.6,14L231,29.3L232.1,28.2z M290.2,58.4
			L279,58.3l5.8-1.8L290.2,58.4z M224.1,36l46.5,15.8L249,58.2l-47-0.3L224.1,36z M220.2,66.6l-38.7,11.5l11.7-11.6L220.2,66.6z
			 M192.1,28.8c7.3,0.1,14.5,1.3,21.4,3.6l1.4,0.5l-25.2,24.9l-50.9-0.3c-0.8,0-1.6,0-2.4,0.1C149.2,39.4,170,28.7,192.1,28.8z
			 M127.6,74.8c1-2.8,2.2-5.6,3.5-8.3c2.6-0.3,5.2-0.5,7.8-0.4l42.3,0.2l-16.9,16.8L120.5,96L127.6,74.8z M151,96.1l-46,45.5
			l12-35.5L151,96.1z M120.7,68.5c-0.5,1.2-1,2.4-1.4,3.6l-9,26.9l-29.8,8.8c-1.8,0.6-3.6,1.2-5.3,1.8
			C82.9,89.4,99.9,74.2,120.7,68.5L120.7,68.5z M70.6,133.5c0-4.4,0.5-8.7,1.4-13c3.5-1.8,7.2-3.2,11-4.4l23.8-7l-15.5,46l-21,20.7
			L70.6,133.5z M70.3,188l14.9-14.7l-15,44.4L70.3,188z M69.4,340.2l11,37.6l-11.2-11.4L69.4,340.2z M68.9,424.8l0.3-46.2l16.4,16.6
			l14.6,49.4l-23.6-8c-2.5-0.8-4.8-1.7-7.2-2.9C69.1,430.9,68.9,427.9,68.9,424.8L68.9,424.8z M98.5,408.2l53.3,54l-41.5-14
			L98.5,408.2z M71.6,444c0.7,0.4,1.5,0.7,2.3,0.9l29.4,9.9l8,27.2c0.6,2.3,1.4,4.6,2.3,6.8C93.2,481.5,77.6,464.8,71.6,444z
			 M119.6,479.7l-6.3-21.5l52.1,17.6l17.1,17.4l-46.2-0.2c-3.9-0.1-7.9-0.4-11.7-1.1C122.5,488,120.8,484,119.6,479.7L119.6,479.7z
			 M203.7,525.5c-6.4,1.9-13,2.8-19.6,2.8c-21.1-0.2-40.8-10.2-53.5-27c1.9,0.2,3.7,0.2,5.6,0.3L191,502l20.9,21.2L203.7,525.5z
			 M183.5,482.1l33.5,11.4l-22.4-0.2L183.5,482.1z M221.4,520.3L203.3,502l39.9,0.2h0.1l18.3,6.2L221.4,520.3z M328.8,532.7
			c-26.6,26.3-69.4,26.1-95.7-0.4l-0.1-0.1l-4.7-4.9l47.5-13.9l54,18.3L328.8,532.7z M270.7,502.5l11.1,0.1l-5.8,1.7L270.7,502.5z
			 M336.8,524.8L290.3,509l21.5-6.3l0.1-0.1l47,0.3L336.8,524.8z M340.7,494.2l38.6-11.4l-11.7,11.6L340.7,494.2z M368.8,532
			c-7.3,0-14.5-1.3-21.3-3.6L346,528l25.2-24.9l50.9,0.3c0.8,0,1.6,0,2.5,0C411.7,521.5,390.9,532.2,368.8,532z M433.3,486
			c-1,2.9-2.1,5.7-3.5,8.4c-2.5,0.2-5.2,0.3-7.8,0.3l-42.3-0.3l17-16.8h0.1l43.6-12.9L433.3,486z M409.8,464.9l46.1-45.5l-12,35.4
			L409.8,464.9z M440.2,492.4c0.4-1.1,0.9-2.4,1.3-3.6l9.1-26.9l29.8-8.9c1.8-0.5,3.6-1.1,5.4-1.9
			C478,471.4,461.1,486.7,440.2,492.4L440.2,492.4z M490.3,427.4c0,4.4-0.5,8.8-1.4,13.1c-3.5,1.7-7.2,3.1-11,4.3l-23.8,7.1
			l15.5-46.1l21-20.6L490.3,427.4z M490.6,372.9l-14.8,14.6l15-44.3L490.6,372.9z M490.9,315.7L462,401.1L392.3,470l-81.6,24
			l-66.1-0.4L170,468.4l-76.7-77.6l-23.8-80.4l0.3-65.2l28.9-85.3l69.7-69l81.7-24l66,0.4L391,92.6l76.6,77.5l23.7,80.5L490.9,315.7
			z M491.4,220.6l-11-37.6l11.2,11.4L491.4,220.6z M491.7,182.2l-16.5-16.6l-14.5-49.4l23.5,8c2.5,0.8,4.9,1.8,7.3,2.9
			c0.4,3,0.6,6,0.5,9L491.7,182.2z M500.6,132.3c25.2,17.1,35.8,48.9,26,77.7l-1.9,5.6l-24.5-24.8l0.3-54.8
			C500.7,134.8,500.7,133.6,500.6,132.3L500.6,132.3z M500.2,203.2l21.5,21.7l-15.5,45.7l-6.3-21.1L500.2,203.2z M499.8,279.4
			l1.5,5.5l-1.6,4.9L499.8,279.4z M499.6,317.2l6.1-18l13.4,45.4l-19.8,19.5L499.6,317.2z M518.3,412.2
			c-4.8,8.9-11.6,16.6-19.8,22.5c0.2-2.4,0.4-4.8,0.4-7.2l0.3-50.9l22.6-22.4l1.9,6.6C528.8,377.9,526.9,396.4,518.3,412.2
			L518.3,412.2z M526.1,337.8l-15.5-53l18-53.2l4.3,4.3c26.2,26.6,26,69.5-0.6,95.8L526.1,337.8z"/>
	</g>
</g>
</svg>
