<svg xmlns="http://www.w3.org/2000/svg" viewBox="0 0 560.86 560.93"><defs><style>.cls-1{fill:#f2f2f2;opacity:0.5;}</style></defs><g id="Layer_2" data-name="Layer 2"><g id="Layer_1-2" data-name="Layer 1"><path class="cls-1" d="M538.84,229.91l-7.21-7.32,3.28-9.83a76.61,76.61,0,0,0-35.6-91.44,76.63,76.63,0,0,0-57.32-60A76,76,0,0,0,354.74,27l-12.66,3.71-8-8.08A76.52,76.52,0,0,0,226,22l-4.25,4.15-5.52-1.91a75.21,75.21,0,0,0-24-4,76.27,76.27,0,0,0-66.72,38.44,76.59,76.59,0,0,0-61,56,76.52,76.52,0,0,0-35.59,88l3.27,11-9.44,9.23A76.44,76.44,0,0,0,22,331l7.26,7.31L26,348.11a76.47,76.47,0,0,0,35.59,91.45,76.44,76.44,0,0,0,57.28,59.89A76.62,76.62,0,0,0,184,537a82.69,82.69,0,0,0,22.17-3.11l12.66-3.77,8,8.08a76.44,76.44,0,0,0,108.1.66l4.15-4.1,5.57,1.86a76.05,76.05,0,0,0,90.74-34.4,76.57,76.57,0,0,0,61.09-56,76.42,76.42,0,0,0,35.6-88.07l-3.28-10.91,9.45-9.29A76.54,76.54,0,0,0,538.84,229.91Zm-510.69,95a68,68,0,0,1,.54-95.82L34.86,223l15.56,52.85L32.35,329.16Zm32.1,99.91v3.87a68,68,0,0,1-26.1-77.8l2-5.67L60.63,370ZM61,311.47l-.33,46.36L39.23,336.1l15.45-45.86L61,311.42Zm.16-29.86-1.58-5.51,1.64-5Zm.22-38.05-6.06,18.18L41.74,216.2l19.87-19.6.06,0ZM62,133.44l-.28,51L39,206.76l-1.86-6.5a68,68,0,0,1,25.28-74C62.21,128.69,62,131,62,133.44Zm427.27-16.71c-.71-.27-1.48-.6-2.24-.87L457.6,106l-7.91-27.29c-.71-2.3-1.53-4.59-2.41-6.77A68,68,0,0,1,489.27,116.73Zm-26.86,35.76L409.23,98.71l41.44,14.09ZM441.33,81.13l6.39,21.46L395.64,85,378.49,67.59l46.14.28A67.91,67.91,0,0,1,436.31,69,59.35,59.35,0,0,1,441.33,81.13ZM357.14,35.27A67.9,67.9,0,0,1,430.3,59.4c-1.85-.11-3.71-.22-5.67-.22l-54.71-.27L349,37.67ZM377.4,78.79,343.66,67.37l22.6.17ZM339.56,40.46,357.64,58.8l-40-.27h-.06l-18.29-6.17ZM232.12,28.17a67.82,67.82,0,0,1,95.81.55l4.75,4.86-47.6,14L231,29.27Zm58.09,30.2L279,58.31l5.84-1.75ZM224.15,36l46.51,15.77L249.1,58.15,202,57.87Zm-3.93,30.62L181.56,78.08,193.3,66.45ZM192.15,28.83a68.9,68.9,0,0,1,21.35,3.6l1.42.49-25.17,24.9-50.88-.33c-.82,0-1.59,0-2.4.06A67.38,67.38,0,0,1,192.15,28.83Zm-64.58,46a86.79,86.79,0,0,1,3.49-8.29,52.61,52.61,0,0,1,7.75-.39l42.26.22L164.14,83.21,120.47,96ZM151,96.09l-46,45.48,12-35.49Zm-30.3-27.57c-.54,1.15-1,2.4-1.42,3.6L110.26,99,80.5,107.78c-1.85.6-3.6,1.2-5.35,1.85A67.81,67.81,0,0,1,120.74,68.52Zm-50.12,65a64.19,64.19,0,0,1,1.37-13,67,67,0,0,1,11-4.37l23.8-7-15.51,46-21,20.69ZM70.29,188l14.86-14.68-15,44.38Zm-.87,152.22,11,37.61L69.26,366.45Zm-.49,84.62.27-46.19,16.44,16.65,14.57,49.41-23.58-8a50.62,50.62,0,0,1-7.15-2.89A61.5,61.5,0,0,1,68.93,424.87Zm29.54-16.65,53.28,54-41.49-14ZM71.55,444a22,22,0,0,0,2.29.93l29.43,9.94,8,27.24a58.15,58.15,0,0,0,2.34,6.77A68,68,0,0,1,71.55,444Zm48,35.71-6.33-21.46,52.08,17.58,17.15,17.37L136.25,493a76.34,76.34,0,0,1-11.74-1.09A66.76,66.76,0,0,1,119.54,479.74Zm84.13,45.81a66,66,0,0,1-19.6,2.78,68,68,0,0,1-53.5-27c1.91.22,3.71.22,5.62.27L191,502l20.91,21.18Zm-20.14-43.46,33.52,11.41-22.38-.16Zm37.83,38.27-18.07-18.29,39.86.22h.11l18.29,6.22ZM328.81,532.7a67.68,67.68,0,0,1-95.82-.55l-4.69-4.86,47.5-13.92,54.05,18.29Zm-58.15-30.25,11.09.06L276,504.25Zm66.12,22.39-46.52-15.78,21.51-6.33.11-.06,47,.27Zm3.93-30.63,38.6-11.41-11.68,11.57ZM368.77,532a67.36,67.36,0,0,1-21.34-3.6L346,528l25.17-24.9,50.89.33c.81,0,1.63,0,2.45-.05A67.55,67.55,0,0,1,368.77,532ZM433.31,486a66.54,66.54,0,0,1-3.5,8.41c-2.51.22-5.18.33-7.75.33l-42.26-.27,17-16.76h.11l43.57-12.94Zm-23.53-21.12,46.07-45.48-12,35.43Zm30.4,27.51c.44-1.14.88-2.35,1.32-3.6l9.06-26.92L480.31,453c1.81-.54,3.61-1.14,5.41-1.85A67.9,67.9,0,0,1,440.18,492.35Zm50.07-65a64.67,64.67,0,0,1-1.42,13.11,70.34,70.34,0,0,1-11,4.25L454,451.84l15.5-46.08,21-20.63Zm.33-54.48-14.8,14.63,15-44.28Zm.32-57.17L462,401.12,392.3,470,310.68,494l-66.11-.38L170,468.38,93.33,390.75,69.58,310.33l.33-65.19,28.94-85.33,69.72-69,81.68-24,65.95.38L391,92.6l76.6,77.47,23.7,80.53Zm.55-95.1-11-37.57,11.19,11.36Zm.22-38.44-16.49-16.65-14.52-49.41,23.53,8a56.86,56.86,0,0,1,7.26,2.95,60.35,60.35,0,0,1,.49,9Zm8.95-49.85a67.61,67.61,0,0,1,26,77.69l-1.86,5.63-24.46-24.79.33-54.76C500.68,134.8,500.68,133.55,500.62,132.34Zm-.38,70.82,21.46,21.67-15.45,45.7L500,249.4Zm-.43,76.21,1.52,5.46-1.58,4.86Zm-.22,37.84,6.06-18,13.43,45.42-19.77,19.54Zm18.67,94.94a67.16,67.16,0,0,1-19.77,22.49c.22-2.4.44-4.8.44-7.2l.27-50.94,22.61-22.39,1.91,6.56A67.45,67.45,0,0,1,518.26,412.15Zm7.8-74.31-15.55-52.95,18-53.18,4.26,4.26a67.86,67.86,0,0,1-.6,95.81Z"/></g></g></svg>