<svg xmlns="http://www.w3.org/2000/svg" viewBox="0 0 289.06 289.05"><defs><style>.cls-1{fill:#fff;}</style></defs><g id="Layer_2" data-name="Layer 2"><g id="Layer_1-2" data-name="Layer 1"><path class="cls-1" d="M145,34.22a110.84,110.84,0,1,0,78.35,32.47A110.39,110.39,0,0,0,145,34.22Zm47.51,112.49a4.66,4.66,0,0,1-1.88,1.8l-69.92,40.28a4.52,4.52,0,0,1-6.68-4V104.06a4.53,4.53,0,0,1,6.87-4l69.91,40.47A4.53,4.53,0,0,1,192.48,146.71ZM144.53,0A144.53,144.53,0,1,0,289.06,144.53,144.53,144.53,0,0,0,144.53,0ZM263.34,147.76a118.42,118.42,0,1,1,0-5.44h.05v5.44Z"/></g></g></svg>