<svg xmlns="http://www.w3.org/2000/svg" viewBox="0 0 32.17 32.17"><defs><style>.cls-1{fill:#fff;stroke:#fff;stroke-miterlimit:10;stroke-width:0.75px;}</style></defs><g id="Layer_2" data-name="Layer 2"><g id="Layer_1-2" data-name="Layer 1"><path class="cls-1" d="M16.08.38a15.71,15.71,0,1,0,15.71,15.7A15.7,15.7,0,0,0,16.08.38Zm0,.76A14.95,14.95,0,1,1,1.14,16.08,14.94,14.94,0,0,1,16.08,1.14ZM12,8.41A2.11,2.11,0,0,0,10,10.53V21.6a2.17,2.17,0,0,0,1,1.83,2.14,2.14,0,0,0,2.11,0l9.58-5.56a2.11,2.11,0,0,0,0-3.67c-3.15-1.91-6.44-3.67-9.58-5.56A2.21,2.21,0,0,0,12,8.41Zm.05.75a1.71,1.71,0,0,1,.67.19l9.57,5.54A1.33,1.33,0,0,1,23,16.06a1.34,1.34,0,0,1-.68,1.18c-3.19,1.79-6.14,3.58-9.58,5.55a1.34,1.34,0,0,1-1.33,0,1.41,1.41,0,0,1-.67-1.19v-11a1.38,1.38,0,0,1,.67-1.19,1.43,1.43,0,0,1,.67-.19Z"/></g></g></svg>