<svg id="Layer_1" data-name="Layer 1" xmlns="http://www.w3.org/2000/svg" viewBox="0 0 30 30"><defs><style>.cls-1{fill:none;}</style></defs><rect class="cls-1" width="30" height="30"/><path d="M25.28,24.63,22.2,21.55l-.44-.44.09.23v-4a.32.32,0,0,0-.64,0v3.87a.54.54,0,0,0,.14.42l.49.49,1.76,1.75,1.24,1.23a.31.31,0,0,0,.44-.45Z"/><path d="M28.56,21.35a7,7,0,0,1-1.15,3.85,7.18,7.18,0,0,1-2.93,2.53,7.07,7.07,0,0,1-7.87-1.39,7,7,0,0,1-2-4.19,7,7,0,0,1,7.53-7.81,7,7,0,0,1,4.34,2,7.15,7.15,0,0,1,2,3.89,6.48,6.48,0,0,1,.09,1.16.32.32,0,0,0,.64,0,7.66,7.66,0,0,0-10.44-7.14,7.64,7.64,0,0,0-3.38,11.68,7.75,7.75,0,0,0,3.73,2.72,7.65,7.65,0,0,0,10-6.13,8.74,8.74,0,0,0,.08-1.14C29.2,20.94,28.56,20.94,28.56,21.35Z"/><path d="M5.19,2.69H3.33A2.6,2.6,0,0,0,2,3,2.47,2.47,0,0,0,.92,4.37a3.33,3.33,0,0,0-.12,1v17a2.51,2.51,0,0,0,.67,1.79,2.52,2.52,0,0,0,1.9.76H15a.32.32,0,0,0,0-.64H3.23a1.8,1.8,0,0,1-1.79-1.79c0-.58,0-1.16,0-1.75V5.18a1.82,1.82,0,0,1,.88-1.61,2,2,0,0,1,1-.24H5.19a.32.32,0,0,0,0-.64Z"/><path d="M21.53,3.33h2.11a1.78,1.78,0,0,1,1,.31,1.81,1.81,0,0,1,.78,1.52v8c0,.71,0,1.43,0,2.15v0a.32.32,0,0,0,.64,0V5.2a2.55,2.55,0,0,0-.61-1.69,2.4,2.4,0,0,0-1.21-.74,3.26,3.26,0,0,0-.82-.08H21.53a.32.32,0,0,0,0,.64Z"/><path d="M10.45,3.33h6.07a.32.32,0,0,0,0-.64H10.45a.32.32,0,0,0,0,.64Z"/><path d="M7.52,1.31V5.79a.32.32,0,0,0,.63,0V1.31a.32.32,0,0,0-.63,0Z"/><path d="M1.15,9.1H25.73a.32.32,0,0,0,0-.64H1.15a.32.32,0,0,0,0,.64Z"/><path d="M6.43,6.16H9.22a.32.32,0,0,0,0-.64H6.43a.32.32,0,0,0,0,.64Z"/><path d="M18.66,1.36V5.84a.32.32,0,0,0,.64,0V1.36a.32.32,0,0,0-.64,0Z"/><path d="M17.57,6.16h2.79a.32.32,0,0,0,0-.64H17.57a.32.32,0,0,0,0,.64Z"/></svg>