<svg id="Layer_1" data-name="Layer 1" xmlns="http://www.w3.org/2000/svg" viewBox="0 0 30 30"><defs><style>.cls-1{fill:none;}</style></defs><rect class="cls-1" width="30" height="30"/><path d="M15,3.89a11.16,11.16,0,1,0,7.9,3.27A11.13,11.13,0,0,0,15,3.89Zm4.79,11.33a.41.41,0,0,1-.19.18l-7,4.06a.46.46,0,0,1-.62-.18.43.43,0,0,1-.06-.22V10.92a.46.46,0,0,1,.45-.46.44.44,0,0,1,.25.06l7,4.08A.46.46,0,0,1,19.83,15.22ZM15,.44A14.56,14.56,0,1,0,29.56,15,14.56,14.56,0,0,0,15,.44ZM27,15.33a11.94,11.94,0,1,1,0-.55h0v.55Z"/></svg>