<svg id="Layer_1" data-name="Layer 1" xmlns="http://www.w3.org/2000/svg" viewBox="0 0 30 30"><defs><style>.cls-1{fill:none;}</style></defs><rect class="cls-1" width="30" height="30"/><path d="M25.86,5H4.09A2.61,2.61,0,0,0,1.46,7.63V22.37A2.61,2.61,0,0,0,4.09,25H25.91a2.61,2.61,0,0,0,2.63-2.63V7.63A2.68,2.68,0,0,0,25.86,5Zm0,.51a2.25,2.25,0,0,1,1.27.4c-1.47,1.47-10.89,11-11.45,11.55-.35.35-.55.45-.71.45h0c-.15,0-.35-.15-.7-.45C13.76,17,4.24,7.43,2.82,6a2.3,2.3,0,0,1,1.27-.45ZM28,22.32a1.94,1.94,0,0,1-.46,1.31l-4.86-4.86a.24.24,0,0,0-.35,0,.25.25,0,0,0,0,.36L27.18,24a2,2,0,0,1-1.32.45H4.09A2,2,0,0,1,2.77,24l4.86-4.86a.25.25,0,0,0,0-.36.24.24,0,0,0-.35,0L2.42,23.63A1.94,1.94,0,0,1,2,22.32V7.63a2.23,2.23,0,0,1,.46-1.31c1.47,1.46,10.93,11,11.49,11.49a1.56,1.56,0,0,0,1.06.61h0c.36,0,.66-.26,1.07-.61.55-.56,10-10.08,11.44-11.54A2,2,0,0,1,28,7.58Z"/></svg>