<svg id="Layer_1" data-name="Layer 1" xmlns="http://www.w3.org/2000/svg" viewBox="0 0 30 30"><defs><style>.cls-1{fill:none;}</style></defs><rect class="cls-1" width="30" height="30"/><path d="M15,.28V0A11.58,11.58,0,0,0,3.43,11.57,12.88,12.88,0,0,0,5.08,17c3,5.83,8.86,12.33,9.2,12.7a1,1,0,0,0,1.44,0,84.89,84.89,0,0,0,5.57-6.9A45.09,45.09,0,0,0,24.92,17a12.88,12.88,0,0,0,1.65-5.41A11.58,11.58,0,0,0,15,0V.56a11,11,0,0,1,11,11,12.42,12.42,0,0,1-1.6,5.16c-2.9,5.73-8.79,12.23-9.11,12.58a.43.43,0,0,1-.62,0,84.69,84.69,0,0,1-5.53-6.85,43.82,43.82,0,0,1-3.58-5.73A12.42,12.42,0,0,1,4,11.57a11,11,0,0,1,11-11Zm0,15V15a4.61,4.61,0,0,1-4.62-4.62,2.62,2.62,0,0,1,0-.28A4.65,4.65,0,0,1,14.7,5.76H15a4.62,4.62,0,0,1,3.27,7.89A4.59,4.59,0,0,1,15,15v.56A5.18,5.18,0,1,0,15,5.2h-.34a5.19,5.19,0,0,0-4.82,4.84c0,.11,0,.22,0,.32A5.17,5.17,0,0,0,15,15.55Z"/></svg>