<svg id="Layer_1" data-name="Layer 1" xmlns="http://www.w3.org/2000/svg" viewBox="0 0 30 30"><defs><style>.cls-1{fill:none;}</style></defs><rect class="cls-1" width="30" height="30"/><path d="M26.21,1H3.79A2.79,2.79,0,0,0,1,3.79V21.23A2.79,2.79,0,0,0,3.79,24H7.23V28.7a.31.31,0,0,0,.18.28l.12,0a.3.3,0,0,0,.21-.09L12.63,24H26.21A2.79,2.79,0,0,0,29,21.23V3.79A2.79,2.79,0,0,0,26.21,1ZM28.4,21.23a2.19,2.19,0,0,1-2.19,2.19H12.51a.27.27,0,0,0-.21.09L7.83,28V23.72a.3.3,0,0,0-.3-.3H3.79A2.19,2.19,0,0,1,1.6,21.23V3.79A2.19,2.19,0,0,1,3.79,1.6H26.21A2.19,2.19,0,0,1,28.4,3.79Z"/></svg>