<svg id="Layer_1" data-name="Layer 1" xmlns="http://www.w3.org/2000/svg" viewBox="0 0 30 30"><defs><style>.cls-1{fill:none;}</style></defs><rect class="cls-1" width="30" height="30"/><path d="M15,14.12a6.62,6.62,0,0,0,6.61-6.61A6.62,6.62,0,0,0,15,.9a6.53,6.53,0,0,0-4.67,1.94A6.62,6.62,0,0,0,8.91,4.93a6.75,6.75,0,0,0-.52,2.58A6.64,6.64,0,0,0,15,14.12ZM15,1.58A5.93,5.93,0,1,1,9.07,7.51,5.94,5.94,0,0,1,15,1.58Z"/><path d="M25,19.1a17.82,17.82,0,0,0-10-2.85A17.82,17.82,0,0,0,5,19.1C2.36,20.92.9,23.33.9,25.88a1.25,1.25,0,0,0,.45.92,4.22,4.22,0,0,0,1.31.79,18.47,18.47,0,0,0,4.31,1,66.49,66.49,0,0,0,8,.49,52.57,52.57,0,0,0,10.91-1,6.3,6.3,0,0,0,2.74-1.26,1.25,1.25,0,0,0,.45-.92C29.1,23.33,27.64,20.92,25,19.1ZM15,28.42A45,45,0,0,1,3.79,27.28a7,7,0,0,1-1.65-.67,1.34,1.34,0,0,1-.47-.44.52.52,0,0,1-.09-.29c0-2.41,1.41-4.66,4-6.35A17.39,17.39,0,0,1,15,16.93a17.39,17.39,0,0,1,9.45,2.6c2.56,1.69,4,3.94,4,6.35a.58.58,0,0,1-.09.3,1,1,0,0,1-.21.24,3,3,0,0,1-.7.43,13,13,0,0,1-2.6.76A49,49,0,0,1,15,28.42Z"/></svg>