<svg id="Layer_1" data-name="Layer 1" xmlns="http://www.w3.org/2000/svg" viewBox="0 0 30 30"><defs><style>.cls-1{fill:none;}</style></defs><rect class="cls-1" width="30" height="30"/><path d="M1.15,9.27c1,6.31,7.27,12.22,7.32,12.27s6,6.38,12.28,7.33a11.72,11.72,0,0,0,1.57.11,6.23,6.23,0,0,0,4.33-1.37,16.76,16.76,0,0,0,2-2.08,1.85,1.85,0,0,0-.16-2.45l-4.62-4.62A1.67,1.67,0,0,0,22.54,18a1.94,1.94,0,0,0-1.27.59l-1.84,1.85h0s-1.08,1.4-2,1.47c-1.52.11-3.67-1.1-5.91-3.33s-3.6-4.59-3.5-5.9H8c.07-.93,1.63-2,1.65-2.05h0l1.82-1.82a1.77,1.77,0,0,0,.14-2.5l-.06-.06L6.94,1.57a1.85,1.85,0,0,0-2.45-.16A16.43,16.43,0,0,0,2.43,3.35C.39,5.41,1.12,9.12,1.15,9.27Zm20.37,9.52a1.61,1.61,0,0,1,1-.49,1.34,1.34,0,0,1,1,.41l4.62,4.62a1.49,1.49,0,0,1,.13,2,15.48,15.48,0,0,1-1.79,1.92L19.81,20.5ZM4.71,1.69a1.5,1.5,0,0,1,2,.13l4.62,4.62a1.42,1.42,0,0,1,0,2l0,0L9.54,10.19,2.81,3.46A16.73,16.73,0,0,1,4.71,1.69Zm-2.14,2,6.7,6.7c-.44.33-1.57,1.28-1.64,2.19h0C7.53,14,9,16.51,11.24,18.78s4.57,3.56,6.19,3.43a4,4,0,0,0,2.15-1.44l6.7,6.7c-1.81,1.62-5.44,1.06-5.48,1.05-6.19-.93-12-7.16-12.08-7.23S2.43,15.41,1.5,9.21C1.49,9.17.8,5.67,2.57,3.72Z"/></svg>