<svg id="Layer_1" data-name="Layer 1" xmlns="http://www.w3.org/2000/svg" viewBox="0 0 30 30"><defs><style>.cls-1{fill:none;}</style></defs><rect class="cls-1" width="30" height="30"/><path d="M24.94,19.18A17.73,17.73,0,0,0,15,16.35a17.73,17.73,0,0,0-9.94,2.83C2.53,20.93,1,23.3,1,25.88a1.16,1.16,0,0,0,.42.85,4,4,0,0,0,1.28.77,18.86,18.86,0,0,0,4.28,1A64.16,64.16,0,0,0,15,29a51.68,51.68,0,0,0,10.89-1,6.31,6.31,0,0,0,2.69-1.23,1.16,1.16,0,0,0,.42-.85C29,23.3,27.47,20.93,24.94,19.18Zm3.48,7.05a1.43,1.43,0,0,1-.23.27,3.06,3.06,0,0,1-.73.44,13,13,0,0,1-2.62.77,50.37,50.37,0,0,1-9.84.81A43.71,43.71,0,0,1,3.76,27.37a6.74,6.74,0,0,1-1.67-.67,1.66,1.66,0,0,1-.51-.47.71.71,0,0,1-.1-.35c0-2.55,1.57-4.82,4-6.44A17.53,17.53,0,0,1,15,16.83a17.53,17.53,0,0,1,9.51,2.61c2.44,1.62,4,3.89,4,6.44A.71.71,0,0,1,28.42,26.23ZM15,1a6.48,6.48,0,0,0-4.6,1.91A6.6,6.6,0,0,0,9,5,6.52,6.52,0,0,0,15,14,6.51,6.51,0,1,0,15,1Zm0,12.54a6,6,0,1,1,6-6A6,6,0,0,1,15,13.54Z"/></svg>