<svg id="Layer_1" data-name="Layer 1" xmlns="http://www.w3.org/2000/svg" viewBox="0 0 30 30"><defs><style>.cls-1{fill:none;}</style></defs><rect class="cls-1" width="30" height="30"/><path d="M15,1A14,14,0,1,0,29,15,14,14,0,0,0,15,1Zm0,.68A13.32,13.32,0,1,1,1.68,15,13.32,13.32,0,0,1,15,1.68ZM11.37,8.16a1.87,1.87,0,0,0-1.83,1.89v9.87a1.92,1.92,0,0,0,.92,1.63,1.88,1.88,0,0,0,1.88,0l8.54-4.95A1.91,1.91,0,0,0,21.83,15a1.88,1.88,0,0,0-.95-1.63c-2.81-1.71-5.74-3.28-8.54-5A2.06,2.06,0,0,0,11.37,8.16Zm0,.67A1.66,1.66,0,0,1,12,9l8.53,4.93A1.22,1.22,0,0,1,21.15,15,1.25,1.25,0,0,1,20.54,16C17.7,17.63,15.07,19.22,12,21a1.18,1.18,0,0,1-1.18,0,1.25,1.25,0,0,1-.6-1.06V10.06a1.22,1.22,0,0,1,1.19-1.23Z"/></svg>