<svg id="Layer_1" data-name="Layer 1" xmlns="http://www.w3.org/2000/svg" viewBox="0 0 30 30"><defs><style>.cls-1{fill:none;}</style></defs><rect class="cls-1" width="30" height="30"/><path d="M16.4,11.17A2.15,2.15,0,1,1,18.54,9,2.15,2.15,0,0,1,16.4,11.17Zm0-3.72A1.58,1.58,0,1,0,18,9,1.58,1.58,0,0,0,16.4,7.45Z"/><path d="M23.55,28.07H9.24a2.45,2.45,0,0,1-2.45-2.44V7.86a.32.32,0,0,1,.08-.21l3.48-3.47a.28.28,0,0,1,.2-.08h13A2.45,2.45,0,0,1,26,6.54V25.63A2.45,2.45,0,0,1,23.55,28.07ZM7.36,8V25.63A1.88,1.88,0,0,0,9.24,27.5H23.55a1.88,1.88,0,0,0,1.88-1.87V6.54a1.88,1.88,0,0,0-1.88-1.87H10.67Z"/><path d="M10.55,8.14H7.08A.29.29,0,0,1,6.81,8a.3.3,0,0,1,.06-.31l3.48-3.47a.27.27,0,0,1,.31-.06.29.29,0,0,1,.17.26V7.86A.28.28,0,0,1,10.55,8.14ZM7.76,7.57h2.5V5.07Z"/><path d="M22.44,14.65H10.35a.28.28,0,0,1-.28-.28.29.29,0,0,1,.28-.29H22.44a.28.28,0,0,1,.28.29A.27.27,0,0,1,22.44,14.65Z"/><path d="M22.44,19.23H10.35a.29.29,0,0,1,0-.57H22.44a.29.29,0,0,1,0,.57Z"/><path d="M22.44,23.81H10.35a.29.29,0,0,1,0-.57H22.44a.29.29,0,0,1,0,.57Z"/><path d="M7.08,25.27H6.35A2.45,2.45,0,0,1,3.9,22.83V3.75A2.45,2.45,0,0,1,6.35,1.3H20.28a2.45,2.45,0,0,1,2.44,2.45v.63a.28.28,0,0,1-.28.29.29.29,0,0,1-.29-.29V3.75a1.88,1.88,0,0,0-1.87-1.88H6.35A1.88,1.88,0,0,0,4.47,3.75V22.83a1.89,1.89,0,0,0,1.88,1.88h.73a.28.28,0,0,1,0,.56Z"/></svg>