<svg id="Layer_1" data-name="Layer 1" xmlns="http://www.w3.org/2000/svg" viewBox="0 0 30 30"><defs><style>.cls-1{fill:none;}</style></defs><rect class="cls-1" width="30" height="30"/><path d="M17.77,22.31H15.3V19.83a.34.34,0,0,0-.31-.31h-.05a.32.32,0,0,0-.23.3v2.48H12.16a.32.32,0,0,0-.27.3v0h0a.32.32,0,0,0,.3.27h2.51v2.47a.31.31,0,0,0,.29.3.32.32,0,0,0,.3-.3V22.91h2.47a.33.33,0,0,0,.3-.31A.32.32,0,0,0,17.77,22.31ZM19.85,15H10.44a.32.32,0,0,0-.27.3v0a.3.3,0,0,0,.3.27h9.37a.31.31,0,0,0,0-.61Zm0-3.1H10.44a.3.3,0,0,0-.27.29v0h0a.29.29,0,0,0,.3.27h9.38a.31.31,0,0,0,.3-.29A.31.31,0,0,0,19.86,11.94Zm-5.2-3.12H10.44a.31.31,0,0,0-.27.31h0a.31.31,0,0,0,.3.27h4.18a.3.3,0,1,0,0-.6Zm5.2,3.12H10.44a.3.3,0,0,0-.27.29v0h0a.29.29,0,0,0,.3.27h9.38a.31.31,0,0,0,.3-.29A.31.31,0,0,0,19.86,11.94Zm0,3.1H10.44a.32.32,0,0,0-.27.3v0a.3.3,0,0,0,.3.27h9.37a.31.31,0,0,0,0-.61Zm-2.08,7.27H15.3V19.83a.34.34,0,0,0-.31-.31h-.05a.32.32,0,0,0-.23.3v2.48H12.16a.32.32,0,0,0-.27.3v0h0a.32.32,0,0,0,.3.27h2.51v2.47a.31.31,0,0,0,.29.3.32.32,0,0,0,.3-.3V22.91h2.47a.33.33,0,0,0,.3-.31A.32.32,0,0,0,17.77,22.31ZM14.66,8.82H10.44a.31.31,0,0,0-.27.31h0a.31.31,0,0,0,.3.27h4.18a.3.3,0,1,0,0-.6Zm0,0H10.44a.31.31,0,0,0-.27.31h0a.31.31,0,0,0,.3.27h4.18a.3.3,0,1,0,0-.6Zm3.11,13.49H15.3V19.83a.34.34,0,0,0-.31-.31h-.05a.32.32,0,0,0-.23.3v2.48H12.16a.32.32,0,0,0-.27.3v0h0a.32.32,0,0,0,.3.27h2.51v2.47a.31.31,0,0,0,.29.3.32.32,0,0,0,.3-.3V22.91h2.47a.33.33,0,0,0,.3-.31A.32.32,0,0,0,17.77,22.31ZM19.85,15H10.44a.32.32,0,0,0-.27.3v0a.3.3,0,0,0,.3.27h9.37a.31.31,0,0,0,0-.61Zm0-3.1H10.44a.3.3,0,0,0-.27.29v0h0a.29.29,0,0,0,.3.27h9.38a.31.31,0,0,0,.3-.29A.31.31,0,0,0,19.86,11.94Zm0,0H10.44a.3.3,0,0,0-.27.29v0h0a.29.29,0,0,0,.3.27h9.38a.31.31,0,0,0,.3-.29A.31.31,0,0,0,19.86,11.94Zm0,3.1H10.44a.32.32,0,0,0-.27.3v0a.3.3,0,0,0,.3.27h9.37a.31.31,0,0,0,0-.61Zm-2.08,7.27H15.3V19.83a.34.34,0,0,0-.31-.31h-.05a.32.32,0,0,0-.23.3v2.48H12.16a.32.32,0,0,0-.27.3v0h0a.32.32,0,0,0,.3.27h2.51v2.47a.31.31,0,0,0,.29.3.32.32,0,0,0,.3-.3V22.91h2.47a.33.33,0,0,0,.3-.31A.32.32,0,0,0,17.77,22.31ZM14.66,8.82H10.44a.31.31,0,0,0-.27.31h0a.31.31,0,0,0,.3.27h4.18a.3.3,0,1,0,0-.6Zm0,0H10.44a.31.31,0,0,0-.27.31h0a.31.31,0,0,0,.3.27h4.18a.3.3,0,1,0,0-.6Zm3.11,13.49H15.3V19.83a.34.34,0,0,0-.31-.31h-.05a.32.32,0,0,0-.23.3v2.48H12.16a.32.32,0,0,0-.27.3v0h0a.32.32,0,0,0,.3.27h2.51v2.47a.31.31,0,0,0,.29.3.32.32,0,0,0,.3-.3V22.91h2.47a.33.33,0,0,0,.3-.31A.32.32,0,0,0,17.77,22.31ZM19.85,15H10.44a.32.32,0,0,0-.27.3v0a.3.3,0,0,0,.3.27h9.37a.31.31,0,0,0,0-.61Zm0-3.1H10.44a.3.3,0,0,0-.27.29v0h0a.29.29,0,0,0,.3.27h9.38a.31.31,0,0,0,.3-.29A.31.31,0,0,0,19.86,11.94Zm0,3.1H10.44a.32.32,0,0,0-.27.3v0a.3.3,0,0,0,.3.27h9.37a.31.31,0,0,0,0-.61Zm0-3.1H10.44a.3.3,0,0,0-.27.29v0h0a.29.29,0,0,0,.3.27h9.38a.31.31,0,0,0,.3-.29A.31.31,0,0,0,19.86,11.94ZM17.77,22.31H15.3V19.83a.34.34,0,0,0-.31-.31h-.05a.32.32,0,0,0-.23.3v2.48H12.16a.32.32,0,0,0-.27.3v0h0a.32.32,0,0,0,.3.27h2.51v2.47a.31.31,0,0,0,.29.3.32.32,0,0,0,.3-.3V22.91h2.47a.33.33,0,0,0,.3-.31A.32.32,0,0,0,17.77,22.31ZM14.66,8.82H10.44a.31.31,0,0,0-.27.31h0a.31.31,0,0,0,.3.27h4.18a.3.3,0,1,0,0-.6Zm0,0H10.44a.31.31,0,0,0-.27.31h0a.31.31,0,0,0,.3.27h4.18a.3.3,0,1,0,0-.6Zm3.11,13.49H15.3V19.83a.34.34,0,0,0-.31-.31h-.05a.32.32,0,0,0-.23.3v2.48H12.16a.32.32,0,0,0-.27.3v0h0a.32.32,0,0,0,.3.27h2.51v2.47a.31.31,0,0,0,.29.3.32.32,0,0,0,.3-.3V22.91h2.47a.33.33,0,0,0,.3-.31A.32.32,0,0,0,17.77,22.31ZM19.85,15H10.44a.32.32,0,0,0-.27.3v0a.3.3,0,0,0,.3.27h9.37a.31.31,0,0,0,0-.61Zm0-3.1H10.44a.3.3,0,0,0-.27.29v0h0a.29.29,0,0,0,.3.27h9.38a.31.31,0,0,0,.3-.29A.31.31,0,0,0,19.86,11.94Zm-9.68.31a.29.29,0,0,0,.3.27h9.38a.31.31,0,0,0,.3-.29.31.31,0,0,0-.3-.29H10.44a.3.3,0,0,0-.27.29v0ZM19.85,15H10.44a.32.32,0,0,0-.27.3v0a.3.3,0,0,0,.3.27h9.37a.31.31,0,0,0,0-.61Zm-2.08,7.27H15.3V19.83a.34.34,0,0,0-.31-.31h-.05a.32.32,0,0,0-.23.3v2.48H12.16a.32.32,0,0,0-.27.3v0h0a.32.32,0,0,0,.3.27h2.51v2.47a.31.31,0,0,0,.29.3.32.32,0,0,0,.3-.3V22.91h2.47a.33.33,0,0,0,.3-.31A.32.32,0,0,0,17.77,22.31ZM10.18,9.15a.31.31,0,0,0,.3.27h4.18a.3.3,0,1,0,0-.6H10.44a.31.31,0,0,0-.27.31h0Zm15.06-3L19,.25,18.8.18H6.7a2,2,0,0,0-2,2V27.79a2,2,0,0,0,2,2H23.3a2,2,0,0,0,2-2V6.35Zm-.5,21.66a1.41,1.41,0,0,1-1.44,1.44H6.7a1.4,1.4,0,0,1-1.43-1.44V2.22A1.41,1.41,0,0,1,6.7.77H17.82V4.83a2.52,2.52,0,0,0,.79,1.73,2.38,2.38,0,0,0,1.63.77h4.5Zm0-21h-4.5A1.9,1.9,0,0,1,19,6.15a2,2,0,0,1-.62-1.32V.77h.29l6,5.71Zm-4.88,5.19H10.44a.3.3,0,0,0-.27.29v0h0a.29.29,0,0,0,.3.27h9.38a.31.31,0,0,0,.3-.29A.31.31,0,0,0,19.86,11.94Zm0,3.1H10.44a.32.32,0,0,0-.27.3v0a.3.3,0,0,0,.3.27h9.37a.31.31,0,0,0,0-.61Zm-2.08,7.27H15.3V19.83a.34.34,0,0,0-.31-.31h-.05a.32.32,0,0,0-.23.3v2.48H12.16a.32.32,0,0,0-.27.3v0h0a.32.32,0,0,0,.3.27h2.51v2.47a.31.31,0,0,0,.29.3.32.32,0,0,0,.3-.3V22.91h2.47a.33.33,0,0,0,.3-.31A.32.32,0,0,0,17.77,22.31ZM10.18,9.15a.31.31,0,0,0,.3.27h4.18a.3.3,0,1,0,0-.6H10.44a.31.31,0,0,0-.27.31h0Zm4.48-.33H10.44a.31.31,0,0,0-.27.31h0a.31.31,0,0,0,.3.27h4.18a.3.3,0,1,0,0-.6Zm3.11,13.49H15.3V19.83a.34.34,0,0,0-.31-.31h-.05a.32.32,0,0,0-.23.3v2.48H12.16a.32.32,0,0,0-.27.3v0h0a.32.32,0,0,0,.3.27h2.51v2.47a.31.31,0,0,0,.29.3.32.32,0,0,0,.3-.3V22.91h2.47a.33.33,0,0,0,.3-.31A.32.32,0,0,0,17.77,22.31ZM19.85,15H10.44a.32.32,0,0,0-.27.3v0a.3.3,0,0,0,.3.27h9.37a.31.31,0,0,0,0-.61Zm0-3.1H10.44a.3.3,0,0,0-.27.29v0h0a.29.29,0,0,0,.3.27h9.38a.31.31,0,0,0,.3-.29A.31.31,0,0,0,19.86,11.94Zm0,3.1H10.44a.32.32,0,0,0-.27.3v0a.3.3,0,0,0,.3.27h9.37a.31.31,0,0,0,0-.61Zm0-3.1H10.44a.3.3,0,0,0-.27.29v0h0a.29.29,0,0,0,.3.27h9.38a.31.31,0,0,0,.3-.29A.31.31,0,0,0,19.86,11.94ZM17.77,22.31H15.3V19.83a.34.34,0,0,0-.31-.31h-.05a.32.32,0,0,0-.23.3v2.48H12.16a.32.32,0,0,0-.27.3v0h0a.32.32,0,0,0,.3.27h2.51v2.47a.31.31,0,0,0,.29.3.32.32,0,0,0,.3-.3V22.91h2.47a.33.33,0,0,0,.3-.31A.32.32,0,0,0,17.77,22.31ZM14.66,8.82H10.44a.31.31,0,0,0-.27.31h0a.31.31,0,0,0,.3.27h4.18a.3.3,0,1,0,0-.6Zm0,0H10.44a.31.31,0,0,0-.27.31h0a.31.31,0,0,0,.3.27h4.18a.3.3,0,1,0,0-.6Zm3.11,13.49H15.3V19.83a.34.34,0,0,0-.31-.31h-.05a.32.32,0,0,0-.23.3v2.48H12.16a.32.32,0,0,0-.27.3v0h0a.32.32,0,0,0,.3.27h2.51v2.47a.31.31,0,0,0,.29.3.32.32,0,0,0,.3-.3V22.91h2.47a.33.33,0,0,0,.3-.31A.32.32,0,0,0,17.77,22.31ZM19.85,15H10.44a.32.32,0,0,0-.27.3v0a.3.3,0,0,0,.3.27h9.37a.31.31,0,0,0,0-.61Zm0-3.1H10.44a.3.3,0,0,0-.27.29v0h0a.29.29,0,0,0,.3.27h9.38a.31.31,0,0,0,.3-.29A.31.31,0,0,0,19.86,11.94Zm0,0H10.44a.3.3,0,0,0-.27.29v0h0a.29.29,0,0,0,.3.27h9.38a.31.31,0,0,0,.3-.29A.31.31,0,0,0,19.86,11.94Zm0,3.1H10.44a.32.32,0,0,0-.27.3v0a.3.3,0,0,0,.3.27h9.37a.31.31,0,0,0,0-.61Zm-2.08,7.27H15.3V19.83a.34.34,0,0,0-.31-.31h-.05a.32.32,0,0,0-.23.3v2.48H12.16a.32.32,0,0,0-.27.3v0h0a.32.32,0,0,0,.3.27h2.51v2.47a.31.31,0,0,0,.29.3.32.32,0,0,0,.3-.3V22.91h2.47a.33.33,0,0,0,.3-.31A.32.32,0,0,0,17.77,22.31ZM14.66,8.82H10.44a.31.31,0,0,0-.27.31h0a.31.31,0,0,0,.3.27h4.18a.3.3,0,1,0,0-.6Zm0,0H10.44a.31.31,0,0,0-.27.31h0a.31.31,0,0,0,.3.27h4.18a.3.3,0,1,0,0-.6Zm3.11,13.49H15.3V19.83a.34.34,0,0,0-.31-.31h-.05a.32.32,0,0,0-.23.3v2.48H12.16a.32.32,0,0,0-.27.3v0h0a.32.32,0,0,0,.3.27h2.51v2.47a.31.31,0,0,0,.29.3.32.32,0,0,0,.3-.3V22.91h2.47a.33.33,0,0,0,.3-.31A.32.32,0,0,0,17.77,22.31ZM19.85,15H10.44a.32.32,0,0,0-.27.3v0a.3.3,0,0,0,.3.27h9.37a.31.31,0,0,0,0-.61Zm0-3.1H10.44a.3.3,0,0,0-.27.29v0h0a.29.29,0,0,0,.3.27h9.38a.31.31,0,0,0,.3-.29A.31.31,0,0,0,19.86,11.94Zm0,0H10.44a.3.3,0,0,0-.27.29v0h0a.29.29,0,0,0,.3.27h9.38a.31.31,0,0,0,.3-.29A.31.31,0,0,0,19.86,11.94Zm0,3.1H10.44a.32.32,0,0,0-.27.3v0a.3.3,0,0,0,.3.27h9.37a.31.31,0,0,0,0-.61Zm-2.08,7.27H15.3V19.83a.34.34,0,0,0-.31-.31h-.05a.32.32,0,0,0-.23.3v2.48H12.16a.32.32,0,0,0-.27.3v0h0a.32.32,0,0,0,.3.27h2.51v2.47a.31.31,0,0,0,.29.3.32.32,0,0,0,.3-.3V22.91h2.47a.33.33,0,0,0,.3-.31A.32.32,0,0,0,17.77,22.31ZM14.66,8.82H10.44a.31.31,0,0,0-.27.31h0a.31.31,0,0,0,.3.27h4.18a.3.3,0,1,0,0-.6Z"/></svg>