<svg id="Layer_1" data-name="Layer 1" xmlns="http://www.w3.org/2000/svg" viewBox="0 0 30 30"><defs><style>.cls-1{fill:none;}</style></defs><rect class="cls-1" width="30" height="30"/><path d="M26.44,9.19,23,5.78a1.94,1.94,0,0,0-1.37-.58H15.08V1.51A1.25,1.25,0,0,0,13.82.25H11.77a1.25,1.25,0,0,0-1.26,1.26V5.2H4.94A1.94,1.94,0,0,0,3,7.14V14a2,2,0,0,0,1.94,1.95h5.57V28.48a1.27,1.27,0,0,0,1.26,1.27h2.05a1.27,1.27,0,0,0,1.26-1.27V15.92h6.56A2,2,0,0,0,23,15.35l3.42-3.42a2,2,0,0,0,0-2.74ZM11,1.51a.79.79,0,0,1,.79-.79h2.05a.79.79,0,0,1,.79.79V5.2H11Zm3.63,27a.79.79,0,0,1-.79.79H11.77a.78.78,0,0,1-.79-.79V15.92h3.63ZM26.11,11.6h0L22.69,15a1.5,1.5,0,0,1-1.05.42H4.94A1.47,1.47,0,0,1,3.47,14V7.14A1.47,1.47,0,0,1,4.94,5.67H21.65a1.5,1.5,0,0,1,1,.43L26.1,9.52a1.45,1.45,0,0,1,.43,1A1.5,1.5,0,0,1,26.11,11.6Z"/></svg>