<svg width="116" height="116" viewBox="0 0 116 116" fill="none" xmlns="http://www.w3.org/2000/svg">
<path d="M113.271 44.7921L104.355 42.8539C103.58 40.4803 102.62 38.1652 101.486 35.9349L106.422 28.2575C107.303 26.8857 107.109 25.0847 105.957 23.9324L92.0676 10.0431C90.9153 8.89081 89.1143 8.69699 87.7425 9.57846L80.0651 14.5142C77.8348 13.3805 75.5197 12.4202 73.1461 11.645L71.2079 2.72937C70.8618 1.13635 69.4511 0 67.821 0H48.179C46.5489 0 45.1382 1.13635 44.7921 2.72937L42.8539 11.645C40.4803 12.4202 38.1652 13.3805 35.9349 14.5142L28.2575 9.57846C26.8857 8.69699 25.0847 8.89081 23.9324 10.0431L10.0431 23.9324C8.89081 25.0847 8.69699 26.8857 9.57846 28.2575L14.5142 35.9349C13.3805 38.1652 12.4202 40.4803 11.645 42.8539L2.72937 44.7921C1.13635 45.139 0 46.5489 0 48.179V67.821C0 69.4511 1.13635 70.861 2.72937 71.2079L11.645 73.1461C12.4202 75.5197 13.3805 77.8348 14.5142 80.0651L9.57846 87.7425C8.69699 89.1143 8.89081 90.9153 10.0431 92.0676L23.9324 105.957C25.0847 107.109 26.8857 107.303 28.2575 106.422L35.9349 101.486C38.1652 102.62 40.4803 103.58 42.8539 104.355L44.7921 113.271C45.1382 114.864 46.5489 116 48.179 116H67.821C69.4511 116 70.8618 114.864 71.2079 113.271L73.1461 104.355C75.5197 103.58 77.8348 102.62 80.0651 101.486L87.7425 106.422C89.1143 107.303 90.9153 107.11 92.0676 105.957L105.957 92.0676C107.109 90.9153 107.303 89.1143 106.422 87.7425L101.486 80.0651C102.62 77.8348 103.58 75.5197 104.355 73.1461L113.271 71.2079C114.864 70.861 116 69.4511 116 67.821V48.179C116 46.5489 114.864 45.139 113.271 44.7921V44.7921ZM78.7968 58C78.7968 69.4671 69.4671 78.7968 58 78.7968C46.5329 78.7968 37.2032 69.4671 37.2032 58C37.2032 46.5329 46.5329 37.2032 58 37.2032C69.4671 37.2032 78.7968 46.5329 78.7968 58V58Z" fill="white"/>
</svg>
